<svg width="100%" viewBox="0 0 680 580" xmlns="http://www.w3.org/2000/svg" role="img">
  <title>String parsing pipeline overview</title>
  <desc>High-level flow of processAndSortText: raw text goes through splitTextSections producing header, main, and footer; main goes through sortMainParticipants; all three parts are merged into the final output.</desc>

  <style>
    text { font-family: ui-sans-serif, system-ui, sans-serif; fill: #1a1a1a; }
    .th  { font-size: 14px; font-weight: 600; }
    .ts  { font-size: 12px; fill: #555; }
    .node-gray  { fill: #f3f3f3; stroke: #bbb; }
    .node-blue  { fill: #e8f0fb; stroke: #5585c8; }
    .node-purple{ fill: #eeecfd; stroke: #7b72d4; }
    .node-teal  { fill: #e0f5ee; stroke: #3aaa7e; }
    .arr { stroke: #888; stroke-width: 1.5; fill: none; }
    marker path { stroke: #888; }
  </style>

  <defs>
    <marker id="arrow" viewBox="0 0 10 10" refX="8" refY="5" markerWidth="6" markerHeight="6" orient="auto-start-reverse">
      <path d="M2 1L8 5L2 9" fill="none" stroke="#888" stroke-width="1.5" stroke-linecap="round" stroke-linejoin="round"/>
    </marker>
  </defs>

  <!-- Input -->
  <rect x="215" y="30" width="250" height="44" rx="22" class="node-gray" stroke-width="0.5"/>
  <text class="th" x="340" y="57" text-anchor="middle">Raw text input</text>

  <line x1="340" y1="74" x2="340" y2="110" class="arr" marker-end="url(#arrow)"/>

  <!-- splitTextSections -->
  <rect x="170" y="110" width="340" height="56" rx="8" class="node-blue" stroke-width="0.5"/>
  <text class="th" x="340" y="132" text-anchor="middle">splitTextSections()</text>
  <text class="ts" x="340" y="152" text-anchor="middle">Normalize, find LIST PESERTA + Note markers</text>

  <!-- Three branches -->
  <path d="M200 166 L200 220" class="arr" marker-end="url(#arrow)"/>
  <line x1="340" y1="166" x2="340" y2="220" class="arr" marker-end="url(#arrow)"/>
  <path d="M480 166 L480 220" class="arr" marker-end="url(#arrow)"/>
  <path d="M170 138 L200 138 L200 166" fill="none" stroke="#bbb" stroke-width="0.5"/>
  <path d="M510 138 L480 138 L480 166" fill="none" stroke="#bbb" stroke-width="0.5"/>

  <!-- header -->
  <rect x="60" y="220" width="280" height="44" rx="8" class="node-gray" stroke-width="0.5"/>
  <text class="th" x="200" y="237" text-anchor="middle">header</text>
  <text class="ts" x="200" y="254" text-anchor="middle">Text before list</text>

  <!-- main -->
  <rect x="220" y="220" width="240" height="44" rx="8" class="node-purple" stroke-width="0.5"/>
  <text class="th" x="340" y="237" text-anchor="middle">main</text>
  <text class="ts" x="340" y="254" text-anchor="middle">Numbered participant lines</text>

  <!-- footer -->
  <rect x="340" y="220" width="280" height="44" rx="8" class="node-gray" stroke-width="0.5"/>
  <text class="th" x="480" y="237" text-anchor="middle">footer</text>
  <text class="ts" x="480" y="254" text-anchor="middle">Notes after list</text>

  <!-- main → sortMainParticipants -->
  <line x1="340" y1="264" x2="340" y2="310" class="arr" marker-end="url(#arrow)"/>

  <!-- sortMainParticipants -->
  <rect x="170" y="310" width="340" height="56" rx="8" class="node-purple" stroke-width="0.5"/>
  <text class="th" x="340" y="332" text-anchor="middle">sortMainParticipants()</text>
  <text class="ts" x="340" y="352" text-anchor="middle">Parse, sort, renumber entries</text>

  <line x1="340" y1="366" x2="340" y2="400" class="arr" marker-end="url(#arrow)"/>

  <!-- sorted main -->
  <rect x="220" y="400" width="240" height="44" rx="8" class="node-purple" stroke-width="0.5"/>
  <text class="th" x="340" y="417" text-anchor="middle">sorted main</text>
  <text class="ts" x="340" y="434" text-anchor="middle">Grouped + prioritised list</text>

  <!-- Three parts converge -->
  <path d="M200 264 L200 470 L300 470" fill="none" class="arr" marker-end="url(#arrow)"/>
  <line x1="340" y1="444" x2="340" y2="490" class="arr" marker-end="url(#arrow)"/>
  <path d="M480 264 L480 470 L380 470" fill="none" class="arr" marker-end="url(#arrow)"/>

  <!-- Merge -->
  <rect x="170" y="490" width="340" height="56" rx="8" class="node-teal" stroke-width="0.5"/>
  <text class="th" x="340" y="512" text-anchor="middle">Merge non-empty parts</text>
  <text class="ts" x="340" y="532" text-anchor="middle">Join header + sorted main + footer</text>

  <line x1="340" y1="546" x2="340" y2="566" class="arr" marker-end="url(#arrow)"/>
  <text class="ts" x="340" y="576" text-anchor="middle">Final formatted text</text>
</svg>
